<svg width="24" height="24" viewBox="0 0 24 24" fill="none" xmlns="http://www.w3.org/2000/svg">
    <path d="M11.25 13.0504V2.90039H12.75V13.0504H11.25ZM12 21.0504C10.7667 21.0504 9.60417 20.8129 8.5125 20.3379C7.42083 19.8629 6.46667 19.2171 5.65 18.4004C4.83333 17.5837 4.1875 16.6296 3.7125 15.5379C3.2375 14.4462 3 13.2837 3 12.0504C3 10.7171 3.28333 9.47122 3.85 8.31289C4.41667 7.15456 5.21667 6.12539 6.25 5.22539L7.3 6.27539C6.41667 6.99206 5.72917 7.84622 5.2375 8.83789C4.74583 9.82956 4.5 10.9004 4.5 12.0504C4.5 14.1337 5.22917 15.9046 6.6875 17.3629C8.14583 18.8212 9.91667 19.5504 12 19.5504C14.0833 19.5504 15.8542 18.8212 17.3125 17.3629C18.7708 15.9046 19.5 14.1337 19.5 12.0504C19.5 10.9004 19.2542 9.82122 18.7625 8.81289C18.2708 7.80456 17.6 6.95872 16.75 6.27539L17.825 5.22539C18.825 6.07539 19.6042 7.09206 20.1625 8.27539C20.7208 9.45872 21 10.7171 21 12.0504C21 13.2837 20.7625 14.4462 20.2875 15.5379C19.8125 16.6296 19.1708 17.5837 18.3625 18.4004C17.5542 19.2171 16.6042 19.8629 15.5125 20.3379C14.4208 20.8129 13.25 21.0504 12 21.0504Z" fill="white"/>
    </svg>
    