<svg width="64" height="64" viewBox="0 0 64 64" fill="none" xmlns="http://www.w3.org/2000/svg">
    <path fill-rule="evenodd" clip-rule="evenodd" d="M49.8267 50.9253C52.4107 48.4973 54.4693 45.5651 55.8751 42.3099C57.2809 39.0547 58.0041 35.5458 58 32C58 17.64 46.36 6 32 6C17.64 6 6.00002 17.64 6.00002 32C5.99591 35.5458 6.71913 39.0547 8.12495 42.3099C9.53077 45.5651 11.5893 48.4973 14.1734 50.9253C18.9918 55.477 25.3716 58.0089 32 58C38.6284 58.0089 45.0082 55.477 49.8267 50.9253ZM16.3867 47.4987C18.2589 45.1564 20.6347 43.2659 23.3377 41.9678C26.0407 40.6696 29.0014 39.997 32 40C34.9986 39.997 37.9593 40.6696 40.6623 41.9678C43.3653 43.2659 45.7411 45.1564 47.6133 47.4987C45.5708 49.5619 43.1388 51.199 40.4586 52.315C37.7784 53.431 34.9033 54.0037 32 54C29.0967 54.0037 26.2216 53.431 23.5414 52.315C20.8612 51.199 18.4293 49.5619 16.3867 47.4987ZM42 24C42 26.6522 40.9464 29.1957 39.0711 31.0711C37.1957 32.9464 34.6522 34 32 34C29.3479 34 26.8043 32.9464 24.9289 31.0711C23.0536 29.1957 22 26.6522 22 24C22 21.3478 23.0536 18.8043 24.9289 16.9289C26.8043 15.0536 29.3479 14 32 14C34.6522 14 37.1957 15.0536 39.0711 16.9289C40.9464 18.8043 42 21.3478 42 24Z" fill="white" fill-opacity="0.5"/>
    </svg>
    