<svg width="42" height="42" viewBox="0 0 42 42" fill="none" xmlns="http://www.w3.org/2000/svg">
    <path
        d="M19.6875 7.93277C16.9454 6.17641 13.7563 5.2452 10.5 5.25002C8.56273 5.24804 6.63932 5.5765 4.8125 6.22127C4.55663 6.31173 4.3351 6.47928 4.1784 6.70086C4.0217 6.92243 3.93754 7.18713 3.9375 7.45852V32.396C3.93753 32.606 3.98793 32.8129 4.08447 32.9993C4.18101 33.1858 4.32086 33.3463 4.4923 33.4675C4.66374 33.5887 4.86176 33.6671 5.06973 33.6959C5.2777 33.7247 5.48955 33.7033 5.6875 33.6333C7.23333 33.088 8.86084 32.8105 10.5 32.8125C13.9913 32.8125 17.1903 34.0498 19.6875 36.113V7.93277ZM22.3125 36.113C24.8962 33.9748 28.1462 32.8072 31.5 32.8125C33.1905 32.8125 34.8075 33.103 36.3125 33.635C36.5106 33.7051 36.7226 33.7265 36.9307 33.6976C37.1388 33.6687 37.3369 33.5902 37.5084 33.4688C37.6799 33.3474 37.8197 33.1866 37.9161 32.9999C38.0126 32.8132 38.0628 32.6061 38.0625 32.396V7.45852C38.0625 7.18713 37.9783 6.92243 37.8216 6.70086C37.6649 6.47928 37.4434 6.31173 37.1875 6.22127C35.3607 5.5765 33.4373 5.24804 31.5 5.25002C28.2437 5.2452 25.0546 6.17641 22.3125 7.93277V36.113Z"
        fill="#015398" />
</svg>
    