<svg width="42" height="42" viewBox="0 0 42 42" fill="none" xmlns="http://www.w3.org/2000/svg">
    <path fill-rule="evenodd" clip-rule="evenodd" d="M9.84375 2.625C8.03075 2.625 6.5625 4.095 6.5625 5.90625V36.0938C6.5625 37.905 8.0325 39.375 9.84375 39.375H32.1562C33.9675 39.375 35.4375 37.905 35.4375 36.0938V22.3125C35.4375 20.572 34.7461 18.9028 33.5154 17.6721C32.2847 16.4414 30.6155 15.75 28.875 15.75H25.5938C24.7235 15.75 23.8889 15.4043 23.2736 14.7889C22.6582 14.1736 22.3125 13.339 22.3125 12.4688V9.1875C22.3125 7.44702 21.6211 5.77782 20.3904 4.54711C19.1597 3.3164 17.4905 2.625 15.75 2.625H9.84375ZM13.125 26.25C13.125 25.9019 13.2633 25.5681 13.5094 25.3219C13.7556 25.0758 14.0894 24.9375 14.4375 24.9375H27.5625C27.9106 24.9375 28.2444 25.0758 28.4906 25.3219C28.7367 25.5681 28.875 25.9019 28.875 26.25C28.875 26.5981 28.7367 26.9319 28.4906 27.1781C28.2444 27.4242 27.9106 27.5625 27.5625 27.5625H14.4375C14.0894 27.5625 13.7556 27.4242 13.5094 27.1781C13.2633 26.9319 13.125 26.5981 13.125 26.25ZM14.4375 30.1875C14.0894 30.1875 13.7556 30.3258 13.5094 30.5719C13.2633 30.8181 13.125 31.1519 13.125 31.5C13.125 31.8481 13.2633 32.1819 13.5094 32.4281C13.7556 32.6742 14.0894 32.8125 14.4375 32.8125H21C21.3481 32.8125 21.6819 32.6742 21.9281 32.4281C22.1742 32.1819 22.3125 31.8481 22.3125 31.5C22.3125 31.1519 22.1742 30.8181 21.9281 30.5719C21.6819 30.3258 21.3481 30.1875 21 30.1875H14.4375Z" fill="#015398"/>
    <path d="M22.6992 3.17773C24.1456 4.84542 24.9405 6.97969 24.9375 9.18723V12.4685C24.9375 12.8307 25.2315 13.1247 25.5937 13.1247H28.875C31.0825 13.1217 33.2168 13.9166 34.8845 15.363C34.1145 12.4347 32.5806 9.76351 30.4397 7.62254C28.2987 5.48157 25.6275 3.94767 22.6992 3.17773V3.17773Z" fill="#015398"/>
    </svg>
    